Coordinates
version=1
nRows=24
nColumns=33
inDegrees=yes

Units are S.I. units (second, meters, Newtons, ...)
Angles are in degrees.

endheader
time	ground_thorax_rot_x	ground_thorax_rot_y	ground_thorax_rot_z	ground_thorax_tx	ground_thorax_ty	ground_thorax_tz	clav_prot_r	clav_elev_r	scapula_abduction_r	scapula_elevation_r	scapula_upward_rot_r	scapula_winging_r	shoulder_elv_r	plane_of_elev_r	axial_rot_r	elbow_flexion_r	pro_sup_r	wrist_flex_r	wrist_dev_r	clav_prot_l	clav_elev_l	scapula_abduction_l	scapula_elevation_l	scapula_upward_rot_l	scapula_winging_l	shoulder_elv_l	plane_of_elev_l	axial_rot_l	elbow_flexion_l	pro_sup_l	wrist_flex_l	wrist_dev_l	
2.0800	-2.627261	5.353649	10.363163	-0.101325	1.028080	0.011009	16.105628	-13.362226	41.193625	-13.664935	23.388605	-11.207720	-2.058318	-55.092362	123.303790	-30.247645	-131.319424	-2.390028	3.002523	24.309080	-10.645049	-36.423910	-5.693343	-23.573467	11.999402	53.067848	1.877721	3.999347	11.749877	12.951331	18.163848	-2.699571	
2.0900	-2.643716	5.337127	10.349971	-0.101564	1.028470	0.011090	16.373826	-13.600971	41.578725	-13.853322	23.364680	-11.247415	-2.025492	-55.378840	123.244456	-30.198557	-131.737833	-2.265195	2.791732	24.368038	-10.645409	-36.525368	-5.661219	-23.511662	12.063920	53.022341	1.750823	4.008908	11.754159	12.506555	17.858007	-2.873195	
2.1000	-2.667383	5.325154	10.351489	-0.101876	1.028805	0.011147	16.654919	-13.836227	41.981781	-14.037378	23.337420	-11.298650	-2.009068	-55.688960	123.178963	-30.140138	-132.229858	-2.133406	2.579283	24.428927	-10.637454	-36.630688	-5.636768	-23.451507	12.132560	52.970105	1.598862	3.954267	11.800930	12.016300	17.523434	-3.069157	
2.1100	-2.682648	5.347600	10.376710	-0.102150	1.028978	0.011251	16.810770	-13.935312	42.195325	-14.107755	23.304806	-11.346029	-2.044817	-55.883824	123.134155	-30.090077	-132.616131	-2.058499	2.481143	24.455779	-10.611088	-36.679792	-5.645403	-23.425106	12.170213	52.937448	1.471404	3.801036	11.910722	11.696831	17.311786	-3.203888	
2.1200	-2.695404	5.389197	10.426275	-0.102436	1.029010	0.011380	16.897362	-13.949228	42.295562	-14.103226	23.255586	-11.395739	-2.130223	-56.012869	123.068966	-30.060571	-133.039258	-2.005852	2.452939	24.456849	-10.573511	-36.686466	-5.673216	-23.416582	12.184205	52.913729	1.324389	3.545657	12.098671	11.421940	17.148268	-3.320765	
2.1300	-2.706978	5.444131	10.487602	-0.102741	1.028924	0.011527	16.922231	-13.899848	42.289838	-14.041199	23.185427	-11.437888	-2.249947	-56.082679	122.976439	-30.067112	-133.491099	-1.963974	2.474836	24.430642	-10.530237	-36.648206	-5.711285	-23.416562	12.171968	52.905426	1.167607	3.254224	12.336354	11.192974	17.030566	-3.418306	
2.1400	-2.721449	5.499918	10.548757	-0.103065	1.028737	0.011679	16.910841	-13.820143	42.214252	-13.948428	23.091931	-11.468982	-2.395862	-56.114360	122.845412	-30.131984	-134.020948	-1.907436	2.513119	24.379482	-10.481290	-36.569310	-5.755537	-23.416571	12.136730	52.912107	0.994502	2.965353	12.629153	10.966882	16.926399	-3.517971	
2.1500	-2.744471	5.543555	10.597571	-0.103412	1.028507	0.011819	16.882339	-13.757304	42.093693	-13.864033	22.972241	-11.470710	-2.550690	-56.133160	122.684341	-30.269147	-134.624172	-1.808936	2.524316	24.303732	-10.433019	-36.450125	-5.796229	-23.407205	12.077519	52.939369	0.823550	2.781562	12.924079	10.758390	16.824344	-3.624776	
2.1600	-2.776175	5.576587	10.636109	-0.103777	1.028241	0.011948	16.836607	-13.716549	41.929674	-13.793222	22.829145	-11.439850	-2.715077	-56.141282	122.499508	-30.474663	-135.310190	-1.665901	2.504128	24.203339	-10.386758	-36.290280	-5.832958	-23.390037	11.993935	52.986410	0.660703	2.696929	13.219272	10.581207	16.723438	-3.741170	
2.1700	-2.823459	5.600753	10.659978	-0.104140	1.027990	0.012054	16.764790	-13.733440	41.706114	-13.766909	22.662474	-11.345180	-2.895248	-56.160520	122.303804	-30.749467	-136.169601	-1.443940	2.419700	24.065814	-10.343505	-36.068925	-5.865605	-23.365205	11.873209	53.065086	0.526598	2.735092	13.483752	10.506115	16.623453	-3.877655	
2.1800	-2.880236	5.618397	10.673868	-0.104531	1.027742	0.012135	16.673972	-13.793137	41.443084	-13.775081	22.484261	-11.204539	-3.082492	-56.191843	122.112573	-31.070772	-137.156675	-1.166663	2.282086	23.903929	-10.300680	-35.807050	-5.899736	-23.341547	11.728734	53.165797	0.421570	2.841881	13.738811	10.528612	16.519323	-4.035411	
2.1900	-2.938950	5.629732	10.688329	-0.104925	1.027501	0.012207	16.563444	-13.883908	41.126019	-13.801871	22.273517	-11.021896	-3.280671	-56.224890	121.926840	-31.462142	-138.244896	-0.840242	2.083418	23.715777	-10.262171	-35.500045	-5.938548	-23.332808	11.555692	53.284207	0.339561	3.035836	14.003908	10.665135	16.404098	-4.217463	
2.2000	-2.985736	5.639126	10.713469	-0.105377	1.027239	0.012280	16.449810	-13.966908	40.788810	-13.815250	22.038880	-10.838436	-3.464302	-56.245578	121.756370	-31.891612	-139.271351	-0.526648	1.863199	23.527060	-10.232079	-35.189546	-5.981457	-23.348203	11.377719	53.402976	0.272403	3.269424	14.300599	10.875237	16.278436	-4.408377	
2.2100	-3.020920	5.646962	10.757174	-0.105823	1.026980	0.012362	16.323275	-14.055988	40.389080	-13.816771	21.740709	-10.630280	-3.643696	-56.252551	121.600549	-32.407966	-140.302670	-0.205856	1.588960	23.321090	-10.217541	-34.845027	-6.036803	-23.416928	11.172475	53.544606	0.213688	3.575396	14.669394	11.245323	16.114743	-4.630367	
2.2200	-3.037184	5.651693	10.816013	-0.106302	1.026711	0.012447	16.194501	-14.126456	39.959432	-13.790281	21.400603	-10.426263	-3.793100	-56.241469	121.478023	-32.981811	-141.177817	0.074443	1.307425	23.119794	-10.212184	-34.503759	-6.107980	-23.537140	10.964294	53.692017	0.170524	3.947490	15.112260	11.747855	15.931978	-4.871216	
2.2300	-3.036735	5.650006	10.896362	-0.106755	1.026434	0.012550	16.055846	-14.179088	39.474967	-13.731335	20.998998	-10.216243	-3.940585	-56.209981	121.372879	-33.653939	-141.960066	0.335901	1.024028	22.910172	-10.211716	-34.144355	-6.200597	-23.711472	10.740652	53.844625	0.124516	4.405382	15.654184	12.379746	15.726375	-5.147360	
2.2400	-3.025519	5.641642	10.988806	-0.107228	1.026174	0.012648	15.911190	-14.230830	38.965035	-13.663955	20.571947	-9.998128	-4.070321	-56.184423	121.295048	-34.372156	-142.649208	0.554013	0.800474	22.705088	-10.206507	-33.791088	-6.312002	-23.917871	10.520298	53.992548	0.084385	4.911619	16.255448	13.155071	15.524474	-5.473361	
2.2500	-3.009139	5.629298	11.088435	-0.107664	1.025958	0.012744	15.753741	-14.302725	38.408406	-13.602453	20.105013	-9.749527	-4.214647	-56.177294	121.210451	-35.172880	-143.401779	0.777092	0.613904	22.486051	-10.197938	-33.413571	-6.440403	-24.152900	10.284666	54.148116	0.033552	5.448120	16.934025	14.062486	15.311363	-5.863355	
2.2600	-2.982973	5.614444	11.188097	-0.108111	1.025774	0.012832	15.596901	-14.376809	37.851282	-13.540324	19.634549	-9.499505	-4.366783	-56.196358	121.109833	-36.014222	-144.125920	0.979826	0.504755	22.271897	-10.179637	-33.045673	-6.579892	-24.394165	10.057255	54.286484	-0.028496	5.972545	17.669078	15.002375	15.109485	-6.292738	
2.2700	-2.940708	5.596344	11.297927	-0.108557	1.025607	0.012928	15.449502	-14.435550	37.302060	-13.459189	19.150775	-9.264730	-4.549751	-56.236523	120.961628	-36.919205	-144.778839	1.169844	0.458310	22.063562	-10.160539	-32.687742	-6.727191	-24.651185	9.835292	54.406130	-0.124320	6.466761	18.481992	15.895100	14.901185	-6.733107	
2.2800	-2.887293	5.576406	11.409675	-0.109010	1.025474	0.013018	15.311028	-14.493241	36.767640	-13.374901	18.666196	-9.037485	-4.758091	-56.309606	120.765846	-37.868051	-145.382847	1.343721	0.475208	21.860763	-10.139181	-32.339818	-6.882475	-24.921379	9.619504	54.515121	-0.246044	6.914154	19.362017	16.765675	14.682416	-7.185179	
2.2900	-2.824454	5.555407	11.524142	-0.109449	1.025381	0.013108	15.180748	-14.554891	36.237327	-13.288051	18.166797	-8.811136	-5.005180	-56.412894	120.507336	-38.879371	-145.981881	1.523043	0.514265	21.655101	-10.122567	-31.986430	-7.044692	-25.214472	9.398257	54.630352	-0.403281	7.303576	20.322013	17.619189	14.436004	-7.639479	
2.3000	-2.755970	5.533152	11.616081	-0.109861	1.025316	0.013191	15.052846	-14.614066	35.715538	-13.199030	17.672745	-8.589250	-5.279717	-56.534921	120.199980	-39.943305	-146.592194	1.711424	0.567942	21.446370	-10.093984	-31.629791	-7.217808	-25.507972	9.177911	54.747881	-0.582325	7.645231	21.352895	18.440554	14.184889	-8.095560	
2.3100	-2.689925	5.509619	11.689161	-0.110247	1.025297	0.013265	14.925804	-14.696423	35.191810	-13.127123	17.172956	-8.351540	-5.589200	-56.686992	119.832404	-41.062041	-147.293954	1.913816	0.640195	21.229678	-10.056998	-31.261560	-7.397614	-25.799060	8.953239	54.882435	-0.797445	7.922791	22.449864	19.296482	13.941297	-8.573710	
